<?xml version="1.0" standalone="no"?>
<!DOCTYPE svg PUBLIC "-//W3C//DTD SVG 20010904//EN"
 "http://www.w3.org/TR/2001/REC-SVG-20010904/DTD/svg10.dtd">
<svg version="1.0" xmlns="http://www.w3.org/2000/svg"
 width="378.000000pt" height="128.000000pt" viewBox="0 0 378.000000 128.000000"
 preserveAspectRatio="xMidYMid meet">
<metadata>
Created by potrace 1.13, written by Peter Selinger 2001-2015
</metadata>
<g transform="translate(0.000000,128.000000) scale(0.100000,-0.100000)"
fill="#000000" stroke="none">
<path d="M264 1126 c-59 -16 -141 -72 -169 -115 -46 -73 -58 -171 -30 -239 40
-96 97 -144 285 -247 125 -68 173 -111 190 -171 36 -126 -124 -219 -264 -154
-88 42 -163 139 -190 248 -7 26 -17 47 -22 47 -10 0 -18 -329 -9 -353 4 -10
13 -6 34 17 35 38 58 39 142 6 95 -38 173 -43 257 -16 184 59 269 241 188 404
-35 73 -92 119 -253 206 -139 75 -178 102 -204 145 -25 40 -24 80 2 123 36 59
109 78 200 53 75 -21 164 -124 189 -217 6 -26 17 -43 25 -43 13 0 15 24 15
139 0 77 -3 146 -6 155 -9 24 -23 19 -34 -10 -9 -24 -14 -26 -49 -21 -21 2
-53 11 -72 20 -86 37 -149 44 -225 23z"/>
<path d="M2160 1133 c-176 -31 -327 -174 -375 -354 -18 -65 -19 -188 -4 -261
30 -141 139 -282 261 -337 370 -167 746 87 725 489 -14 286 -217 474 -505 469
-42 -1 -88 -4 -102 -6z m194 -57 c67 -28 121 -111 145 -224 6 -29 11 -127 11
-218 0 -133 -4 -179 -20 -240 -41 -151 -107 -214 -226 -214 -156 0 -237 153
-238 450 -1 234 43 368 141 431 53 33 129 39 187 15z"/>
<path d="M807 1114 c-13 -13 5 -24 39 -24 24 0 43 -8 59 -25 l25 -24 0 -404
c0 -459 3 -445 -79 -456 -23 -3 -43 -10 -44 -16 -3 -12 813 -19 825 -7 5 5 15
67 23 138 23 191 22 179 1 179 -14 0 -23 -14 -36 -57 -35 -112 -90 -180 -169
-207 -38 -12 -239 -15 -258 -3 -29 18 -33 70 -33 438 0 450 -3 436 105 446 17
2 30 8 30 13 0 11 -477 20 -488 9z"/>
<path d="M2893 1113 c-9 -3 -13 -37 -13 -118 0 -92 3 -114 15 -119 9 -3 17 0
19 7 25 96 61 152 112 173 18 8 63 14 99 14 l65 0 0 -419 c0 -477 3 -459 -81
-470 -24 -3 -43 -10 -41 -16 1 -6 90 -10 242 -10 152 0 241 4 243 10 1 6 -16
12 -38 15 -57 7 -75 21 -85 66 -5 21 -10 216 -10 433 l0 393 79 -3 c61 -3 86
-9 108 -25 37 -28 71 -78 83 -126 7 -22 17 -38 26 -38 12 0 14 19 12 118 l-3
117 -410 2 c-225 1 -416 -1 -422 -4z"/>
</g>
</svg>
